Coordinates
version=1
nRows=9
nColumns=24
inDegrees=yes

Units are S.I. units (second, meters, Newtons, ...)
Angles are in degrees.

endheader
time	pelvis_tilt	pelvis_list	pelvis_rotation	pelvis_tx	pelvis_ty	pelvis_tz	hip_flexion_r	hip_adduction_r	hip_rotation_r	knee_angle_r	ankle_angle_r	subtalar_angle_r	mtp_angle_r	hip_flexion_l	hip_adduction_l	hip_rotation_l	knee_angle_l	ankle_angle_l	subtalar_angle_l	mtp_angle_l	lumbar_extension	lumbar_bending	lumbar_rotation
      0.90883333	     -1.36840690	     -1.29722854	     -3.74132036	     -0.17118115	      0.89246362	      0.34991853	    -12.98104244	      6.05295594	      3.28796422	    -10.11703632	     18.93497168	      5.46586524	      6.37445474	     30.74247589	     -1.76960655	     -7.23985058	    -21.19425905	      6.19696145	     -2.76392037	      0.74311823	     -8.35262692	      1.69298545	      8.98690207
      0.91300000	     -1.47735302	     -1.29468644	     -3.85603019	     -0.16536040	      0.89106497	      0.34990908	    -12.95279591	      5.98576300	      3.20170029	    -10.80833830	     19.23796903	      5.87503288	      6.58213133	     30.78759756	     -1.73677022	     -7.23522927	    -20.98073826	      6.28486818	     -2.70264107	      0.71282455	     -8.19756522	      1.62023587	      9.09882339
      0.91716667	     -1.59170049	     -1.28393189	     -3.97597756	     -0.15948683	      0.88971476	      0.34990870	    -12.90707131	      5.91029742	      3.15697596	    -11.52696868	     19.52194940	      6.21437681	      6.79332441	     30.82476216	     -1.70276200	     -7.26032352	    -20.85166436	      6.32492055	     -2.68432345	      0.69500826	     -8.00294341	      1.56457678	      9.16472107
      0.92133333	     -1.70305018	     -1.26477345	     -4.08417364	     -0.15359822	      0.88840604	      0.34987996	    -12.83071509	      5.82456388	      3.07273032	    -12.31402797	     19.76390411	      6.55646620	      7.02478722	     30.85945994	     -1.65577010	     -7.28524033	    -20.82221241	      6.35463438	     -2.71132415	      0.68978451	     -7.81294070	      1.50201737	      9.21743906
      0.92550000	     -1.82379268	     -1.23908344	     -4.18886242	     -0.14770272	      0.88713807	      0.34986065	    -12.71404389	      5.73456018	      3.00810878	    -13.16306539	     19.97822261	      6.90055945	      7.27100131	     30.89861434	     -1.60199799	     -7.29339178	    -20.87495144	      6.35309143	     -2.77694029	      0.69654588	     -7.62036869	      1.40756768	      9.25268573
      0.92966667	     -1.93170748	     -1.20688036	     -4.27559821	     -0.14177826	      0.88593469	      0.34978612	    -12.57726956	      5.63149070	      2.86610920	    -14.07612693	     20.13247688	      7.28383412	      7.58310107	     30.92409092	     -1.53210989	     -7.30352296	    -21.01542892	      6.32557301	     -2.90287002	      0.71872085	     -7.43330557	      1.33035447	      9.28007759
      0.93383333	     -2.00310059	     -1.13723705	     -4.36218942	     -0.13580713	      0.88485727	      0.34969160	    -12.44797910	      5.47629990	      2.69704820	    -15.05176563	     20.28351928	      7.75153680	      8.34907208	     30.88032699	     -1.41112273	     -7.28280998	    -21.18001090	      6.30255868	     -3.15230361	      0.80199086	     -7.29455368	      1.17493729	      9.29761978
      0.93800000	     -2.15545333	     -1.12246539	     -4.43956373	     -0.12988619	      0.88370525	      0.34967884	    -12.21634739	      5.41504237	      2.68547026	    -16.05549345	     20.27870390	      7.89229442	      8.56411204	     30.97564542	     -1.38069419	     -7.32742854	    -21.51824717	      6.20607287	     -3.24731340	      0.83086712	     -7.05951253	      1.07843691	      9.24458946
      0.94216667	     -2.25619637	     -1.05248430	     -4.49579288	     -0.12388707	      0.88272376	      0.34951068	    -11.98671193	      5.25709386	      2.46167863	    -17.14338928	     20.15688193	      8.28732949	     12.15923683	     30.96005843	     -1.24287499	     -7.26496409	    -21.79826903	      6.01695356	     -3.66796633	      1.41988486	     -6.86176601	      0.95935494	      9.20171859
